<svg width="400" height="756" viewBox="0 0 400 756" fill="none" xmlns="http://www.w3.org/2000/svg">
<path d="M175 136V114L197 126.5V399.5H193.5C199.5 410.5 191.5 503 189.5 516C190.3 526.4 187.167 542 185.5 548.5C189 561.833 195 590.7 191 599.5C186 610.5 184 665.5 185.5 671C187 676.5 189.5 680.5 188 698C186.8 712 183.833 714.5 182.5 714C179.3 721.2 174.5 718.667 172.5 716.5H163C147 718.5 149.333 711 152.5 707C154.333 706.667 159 702.7 163 689.5C168 673 158 664 158 626C145.6 590.4 149.167 553.167 152.5 539C150.5 541.833 146.5 538.6 146.5 503C109.5 395 153.5 333.5 146.5 318.5C139.5 303.5 148.5 309.5 146.5 281C144.9 258.2 136.167 237.167 132 229.5L125 259.5C125 270.333 124.1 294.9 120.5 306.5C112.5 325.7 103.833 356.55 100.5 369.575C106.857 378.703 101.5 408.004 101.5 422C99.1 428.8 97.1667 424.833 96.5 422C96.9 400.8 95 398.167 94 399.5C93.3333 406.833 91.8 423.5 91 431.5C88.6 437.5 86.3333 434 85.5 431.5L84.5 400C84.1667 407 83.5 423.6 83.5 434C81.1 441.6 78.1667 437.167 77 434L76 400.5V426.5C72.8 435.3 70.3333 430.167 69.5 426.5V383.5C66.8333 388 60.1 397 54.5 397C45.3 392.2 67.6667 373.333 80 364.5C79.6667 363.333 80.2 356.4 85 338C81.0001 320.8 86.6667 284.833 90 269C89.8333 264.167 92.2 245.8 103 211C97 164 122.5 149 133.5 150.5C142.3 151.7 164.833 141.333 175 136Z" fill="#0F172A"/>
<path d="M69.5 383.5C66.8333 388 60.1 397 54.5 397C45.3 392.2 67.6667 373.333 80 364.5C79.6667 363.333 80.2 356.4 85 338C81.0001 320.8 86.6667 284.833 90 269C89.8333 264.167 92.2 245.8 103 211C97 164 122.5 149 133.5 150.5C142.3 151.7 164.833 141.333 175 136V114L197 126.5V399.5C196.2 399.5 194.333 399.5 193.5 399.5C199.5 410.5 191.5 503 189.5 516C190.3 526.4 187.167 542 185.5 548.5C189 561.833 195 590.7 191 599.5C186 610.5 184 665.5 185.5 671C187 676.5 189.5 680.5 188 698C186.8 712 183.833 714.5 182.5 714C179.3 721.2 174.5 718.667 172.5 716.5C171.667 716.5 168.6 716.5 163 716.5C147 718.5 149.333 711 152.5 707C154.333 706.667 159 702.7 163 689.5C168 673 158 664 158 626C145.6 590.4 149.167 553.167 152.5 539C150.5 541.833 146.5 538.6 146.5 503C109.5 395 153.5 333.5 146.5 318.5C139.5 303.5 148.5 309.5 146.5 281C144.9 258.2 136.167 237.167 132 229.5L125 259.5C125 270.333 124.1 294.9 120.5 306.5C112.5 325.7 103.833 356.55 100.5 369.575M69.5 383.5C73.5 383.833 82.8 382.5 88 374.5M69.5 383.5V426.5C70.3333 430.167 72.8 435.3 76 426.5C76 412.1 76 403.167 76 400.5L77 434C78.1667 437.167 81.1 441.6 83.5 434C83.5 423.6 84.1667 407 84.5 400L85.5 431.5C86.3333 434 88.6 437.5 91 431.5C91.8 423.5 93.3333 406.833 94 399.5C95 398.167 96.9 400.8 96.5 422C97.1667 424.833 99.1 428.8 101.5 422C101.5 408.004 106.857 378.702 100.5 369.575M97 367C98.4401 367.376 99.5901 368.269 100.5 369.575" stroke="white"/>
<path d="M219 136V114L197 126.5V399.5H200.5C194.5 410.5 202.5 503 204.5 516C203.7 526.4 206.833 542 208.5 548.5C205 561.833 199 590.7 203 599.5C208 610.5 210 665.5 208.5 671C207 676.5 204.5 680.5 206 698C207.2 712 210.167 714.5 211.5 714C214.7 721.2 219.5 718.667 221.5 716.5H231C247 718.5 244.667 711 241.5 707C239.667 706.667 235 702.7 231 689.5C226 673 236 664 236 626C248.4 590.4 244.833 553.167 241.5 539C243.5 541.833 247.5 538.6 247.5 503C284.5 395 240.5 333.5 247.5 318.5C254.5 303.5 245.5 309.5 247.5 281C249.1 258.2 257.833 237.167 262 229.5L269 259.5C269 270.333 269.9 294.9 273.5 306.5C281.5 325.7 290.167 356.55 293.5 369.575C287.143 378.703 292.5 408.004 292.5 422C294.9 428.8 296.833 424.833 297.5 422C297.1 400.8 299 398.167 300 399.5C300.667 406.833 302.2 423.5 303 431.5C305.4 437.5 307.667 434 308.5 431.5L309.5 400C309.833 407 310.5 423.6 310.5 434C312.9 441.6 315.833 437.167 317 434L318 400.5V426.5C321.2 435.3 323.667 430.167 324.5 426.5V383.5C327.167 388 333.9 397 339.5 397C348.7 392.2 326.333 373.333 314 364.5C314.333 363.333 313.8 356.4 309 338C313 320.8 307.333 284.833 304 269C304.167 264.167 301.8 245.8 291 211C297 164 271.5 149 260.5 150.5C251.7 151.7 229.167 141.333 219 136Z" fill="#0F172A"/>
<path d="M324.5 383.5C327.167 388 333.9 397 339.5 397C348.7 392.2 326.333 373.333 314 364.5C314.333 363.333 313.8 356.4 309 338C313 320.8 307.333 284.833 304 269C304.167 264.167 301.8 245.8 291 211C297 164 271.5 149 260.5 150.5C251.7 151.7 229.167 141.333 219 136V114L197 126.5V399.5C197.8 399.5 199.667 399.5 200.5 399.5C194.5 410.5 202.5 503 204.5 516C203.7 526.4 206.833 542 208.5 548.5C205 561.833 199 590.7 203 599.5C208 610.5 210 665.5 208.5 671C207 676.5 204.5 680.5 206 698C207.2 712 210.167 714.5 211.5 714C214.7 721.2 219.5 718.667 221.5 716.5C222.333 716.5 225.4 716.5 231 716.5C247 718.5 244.667 711 241.5 707C239.667 706.667 235 702.7 231 689.5C226 673 236 664 236 626C248.4 590.4 244.833 553.167 241.5 539C243.5 541.833 247.5 538.6 247.5 503C284.5 395 240.5 333.5 247.5 318.5C254.5 303.5 245.5 309.5 247.5 281C249.1 258.2 257.833 237.167 262 229.5L269 259.5C269 270.333 269.9 294.9 273.5 306.5C281.5 325.7 290.167 356.55 293.5 369.575M324.5 383.5C320.5 383.833 311.2 382.5 306 374.5M324.5 383.5V426.5C323.667 430.167 321.2 435.3 318 426.5C318 412.1 318 403.167 318 400.5L317 434C315.833 437.167 312.9 441.6 310.5 434C310.5 423.6 309.833 407 309.5 400L308.5 431.5C307.667 434 305.4 437.5 303 431.5C302.2 423.5 300.667 406.833 300 399.5C299 398.167 297.1 400.8 297.5 422C296.833 424.833 294.9 428.8 292.5 422C292.5 408.004 287.143 378.702 293.5 369.575M297 367C295.56 367.376 294.41 368.269 293.5 369.575" stroke="white"/>
<path d="M225.009 62.3559C199.009 36.3559 176.509 51.5226 168.509 62.3559V86.356C162.843 82.1893 154.909 80.056 168.509 104.856C185.509 135.856 209.009 134.856 225.009 104.856C237.809 80.856 230.343 80.856 225.009 83.856V62.3559Z" fill="#0F172A"/>
<path d="M197 399V122" stroke="#0F172A" stroke-width="3"/>
<path d="M143.5 319C162.167 323.167 215.3 329 248.5 319" stroke="white"/>
</svg>
