<svg width="377" height="640" viewBox="0 0 377 640" fill="none" xmlns="http://www.w3.org/2000/svg">
<path d="M49.6128 454.278L127.142 458.888H223.948L212.633 603.469L127.142 616.041L49.6128 600.116V454.278Z" fill="#0F172A"/>
<path d="M127.142 458.888L49.6128 454.278V600.116L127.142 616.041M127.142 458.888V616.041M127.142 458.888H223.948L212.633 603.469L127.142 616.041" stroke="white" stroke-width="3"/>
<path d="M130.494 454.696C47.6851 474.812 46.1203 407.48 60.5085 374.234L65.1184 343.641C65.1184 313.049 53.8034 257.731 31.1734 224.205C9.36924 191.902 1.57072 144.817 1.03051 143.297C1.01029 143.315 1 143.324 1 143.324C1 143.247 1.01005 143.239 1.03051 143.297C2.17871 142.293 35.3424 113.404 34.107 127.818C33.1042 139.517 47.3497 188.248 65.1184 208.699C89.0058 230.491 112.474 228.815 130.494 208.699C157.315 186.069 152.286 159.249 160.249 126.142L184.974 133.266C184.974 133.266 185.393 136.618 183.298 162.601C181.894 180.012 177.012 194.451 160.249 232.586C146.336 264.236 153.962 343.641 153.962 343.641L157.315 391.243C166.459 392.666 173.78 395.149 179.526 398.278C215.287 398.365 292.928 402.815 317.402 419.913C328.298 436.676 293.515 554.855 307.763 580C322.012 605.144 362.662 615.621 371.882 617.297C381.102 618.974 376.073 646.633 324.945 628.193C273.818 609.754 259.57 631.546 280.943 580C285.552 544.378 278.009 537.254 271.304 513.786C266.855 498.214 268.125 474.708 270.464 459.306C267.951 458.887 210.953 470.621 184.343 459.306C173.01 501.353 161.406 583.79 167.373 585.448C174.916 587.543 186.65 602.63 192.937 609.754C199.223 616.878 239.873 628.193 210.119 636.994C180.364 645.795 161.925 626.517 149.772 623.584C122.951 625.26 134.685 602.63 140.971 593.829C147.257 585.029 146 567.847 146 528.454C135.942 498.615 131.472 466.849 130.494 454.696Z" fill="#0F172A"/>
<path d="M130.494 454.696C47.6851 474.812 46.1203 407.48 60.5085 374.234L65.1184 343.641M130.494 454.696C130.494 450.505 130.494 440.448 130.494 433.323M130.494 454.696C131.472 466.849 135.942 498.615 146 528.454C146 567.847 147.257 585.029 140.971 593.829C134.685 602.63 122.951 625.26 149.772 623.584C161.925 626.517 180.364 645.795 210.119 636.994C239.873 628.193 199.223 616.878 192.937 609.754C186.65 602.63 174.916 587.543 167.373 585.448C161.406 583.79 173.01 501.353 184.343 459.306M109.96 392.254C129.438 389.332 145.023 389.33 157.315 391.243M179.526 398.278C199.294 409.042 200.414 427.454 192.937 436.676C190.31 439.915 187.336 448.202 184.343 459.306M179.526 398.278C215.287 398.365 292.928 402.815 317.402 419.913C328.298 436.676 293.515 554.855 307.763 580C322.012 605.144 362.662 615.621 371.882 617.297C381.102 618.974 376.073 646.633 324.945 628.193C273.818 609.754 259.57 631.546 280.943 580C285.552 544.378 278.009 537.254 271.304 513.786C266.855 498.214 268.125 474.708 270.463 459.306M179.526 398.278C173.78 395.149 166.459 392.666 157.315 391.243M274.237 444.219C273.109 445.77 271.649 451.496 270.463 459.306M270.463 459.306C267.951 458.887 210.953 470.621 184.343 459.306M157.315 391.243L153.962 343.641M153.962 343.641H65.1184M153.962 343.641C153.962 343.641 146.336 264.236 160.249 232.586C177.012 194.451 181.894 180.012 183.298 162.601C185.393 136.618 184.974 133.266 184.974 133.266L160.249 126.142C152.286 159.249 157.315 186.069 130.494 208.699C112.474 228.815 89.0058 230.491 65.1184 208.699C47.3497 188.248 33.1042 139.517 34.107 127.818C35.3642 113.15 1 143.324 1 143.324C1 141.228 8.5433 190.679 31.1734 224.205C53.8034 257.731 65.1184 313.049 65.1184 343.641" stroke="white"/>
<path d="M78.5 222C86.0724 219.5 86.0724 206.5 86.0724 206.5C100.153 212.87 110.658 214.706 114.15 212.052V226.72C108.786 230.072 67.9723 225.476 78.5 222Z" fill="#0F172A"/>
<path d="M128.883 153.426C105.218 128.436 81.4983 144.063 74.2169 154.476V177.544C69.0593 173.539 61.8949 177.466 77.458 194.275C92.9309 224.071 121.347 225.365 128.883 194.275C133.775 174.091 133.737 171.207 128.883 174.091V153.426Z" fill="#0F172A" stroke="white" stroke-linejoin="round"/>
<path d="M33.8106 95.1193C31.8142 107.893 34.6487 121.8 33.8106 128.226C24.7306 138.843 5.5649 156.807 1.54178 143.732C-3.48713 127.388 27.9435 54.888 35.906 44.4111C54.3453 0.40823 56.0216 3.34176 57.2788 5.01809C63.1459 -5.03972 64.8222 2.50364 64.8222 6.27544C69.1805 3.92862 68.5938 10.3265 67.7557 13.8188C64.8222 21.9209 59.458 40.0529 61.4696 47.7638C84.5187 45.6684 76.5563 49.8592 64.8222 53.2118C58.4522 61.258 48.4782 62.9902 44.2875 62.8505C41.773 67.181 35.8564 82.0289 33.8106 95.1193Z" fill="#0F172A"/>
<path d="M156.779 96.2525C158.469 107.153 159.539 121.497 160.249 126.98C167.935 136.039 180.691 148.891 184.096 137.734C188.354 123.788 161.746 61.9229 155.005 52.9829C139.396 15.435 137.977 17.9382 136.912 19.3686C131.945 10.7863 130.526 17.223 130.526 20.4415C126.837 18.439 127.333 23.8983 128.043 26.8783C130.526 33.7919 135.067 49.264 133.365 55.8438C113.852 54.0558 120.593 57.6318 130.526 60.4926C135.919 67.3585 144.362 68.8365 147.91 68.7173C150.039 72.4125 155.047 85.0824 156.779 96.2525Z" fill="#0F172A"/>
</svg>
